<svg width="120" height="50" viewBox="0 0 120 50" fill="none" xmlns="http://www.w3.org/2000/svg">
<path fill-rule="evenodd" clip-rule="evenodd" d="M22.4369 6.63C21.0436 8.30151 18.8142 9.61989 16.5849 9.43155C16.3062 7.17147 17.3977 4.77015 18.6749 3.28697C20.0682 1.56838 22.5066 0.34417 24.4805 0.25C24.7127 2.60424 23.807 4.9114 22.4369 6.63ZM24.457 9.87879C22.493 9.7642 20.701 10.4776 19.2535 11.0538C18.322 11.4246 17.5332 11.7386 16.933 11.7386C16.2596 11.7386 15.4382 11.4078 14.516 11.0364C13.3076 10.5498 11.926 9.99334 10.4772 10.02C7.15646 10.0671 4.0679 11.9741 2.37268 15.011C-1.11066 21.085 1.46701 30.0782 4.83424 35.0221C6.48302 37.4705 8.45691 40.1544 11.0578 40.0602C12.202 40.0164 13.0251 39.6623 13.877 39.2959C14.8576 38.874 15.8764 38.4358 17.4671 38.4358C19.0027 38.4358 19.9769 38.8626 20.9121 39.2723C21.8013 39.6619 22.6553 40.036 23.9229 40.0131C26.6167 39.966 28.3119 37.5647 29.9607 35.1163C31.74 32.4885 32.5219 29.9238 32.6406 29.5347C32.6474 29.5124 32.652 29.4973 32.6545 29.4896C32.6517 29.4868 32.6298 29.4766 32.5913 29.4588L32.5912 29.4587L32.5911 29.4587L32.591 29.4586L32.591 29.4586L32.5909 29.4585C31.9961 29.1825 27.4499 27.0725 27.4063 21.4146C27.3625 16.6655 31.0122 14.2594 31.5867 13.8806L31.5868 13.8806C31.6217 13.8576 31.6453 13.842 31.6559 13.8339C29.3337 10.3496 25.711 9.97296 24.457 9.87879ZM43.1047 39.7543V3.05167H56.6898C63.7029 3.05167 68.6028 7.9485 68.6028 15.1054C68.6028 22.2623 63.61 27.2062 56.504 27.2062H48.7245V39.7543H43.1047ZM48.724 7.85402H55.203C60.0797 7.85402 62.8664 10.4908 62.8664 15.1286C62.8664 19.7665 60.0797 22.4268 55.1798 22.4268H48.724V7.85402ZM87.1576 35.3516C85.6714 38.2238 82.397 40.0366 78.8672 40.0366C73.6422 40.0366 69.9963 36.8819 69.9963 32.1263C69.9963 27.4178 73.5261 24.7105 80.0516 24.3102L87.0647 23.8865V21.8618C87.0647 18.8719 85.1373 17.2475 81.7004 17.2475C78.8672 17.2475 76.8005 18.7307 76.3825 20.9908H71.32C71.4826 16.2352 75.8948 12.7745 81.8629 12.7745C88.2955 12.7745 92.4755 16.1881 92.4755 21.4851V39.7541H87.2737V35.3516H87.1576ZM80.3763 35.6815C77.3807 35.6815 75.4764 34.2219 75.4764 31.9854C75.4764 29.6782 77.311 28.3363 80.8176 28.1244L87.0643 27.7242V29.7959C87.0643 33.2331 84.1848 35.6815 80.3763 35.6815ZM109.729 41.1902C107.477 47.6172 104.899 49.736 99.4187 49.736C99.0007 49.736 97.6074 49.689 97.2823 49.5948V45.1924C97.6306 45.2394 98.4898 45.2865 98.9311 45.2865C101.416 45.2865 102.809 44.2271 103.668 41.4727L104.179 39.8482L94.6582 13.1276H100.533L107.152 34.8102H107.268L113.886 13.1276H119.599L109.729 41.1902Z" fill="black"/>
</svg>
