<svg width="77" height="77" viewBox="0 0 77 77" fill="none" xmlns="http://www.w3.org/2000/svg">
<path fill-rule="evenodd" clip-rule="evenodd" d="M76.545 38.3068C76.545 59.4631 59.4211 76.6136 38.2977 76.6136C17.1743 76.6136 0.050415 59.4631 0.050415 38.3068C0.050415 17.1505 17.1743 0 38.2977 0C59.4211 0 76.545 17.1505 76.545 38.3068ZM47.4865 24.0746C52.8068 25.9044 56.6987 28.6444 55.9352 33.7435C55.3806 37.4774 53.3062 39.2833 50.55 39.9156C54.3314 41.8795 55.6201 45.6069 54.4226 50.1138C52.149 56.5997 46.7446 57.1457 39.5564 55.7901L37.811 62.7622L33.5974 61.7132L35.3189 54.8345C34.2265 54.5639 33.1101 54.274 31.96 53.9651L30.2314 60.8773L26.0227 59.8282L27.7657 52.8418L19.2786 50.7054L21.3722 45.8913C21.3722 45.8913 24.4789 46.7128 24.4357 46.6529C25.6289 46.9475 26.1595 46.1715 26.3684 45.6566L31.0981 26.7331C31.1509 25.8397 30.8412 24.7141 29.1342 24.2877C29.199 24.2422 26.0731 23.5285 26.0731 23.5285L27.1943 19.0377L35.6934 21.1382L37.422 14.2308L41.6332 15.2799L39.9405 22.0507C41.0738 22.307 42.2118 22.5681 43.3186 22.8435L44.9992 16.1157L49.2127 17.1648L47.4865 24.0746ZM37.4043 35.5972C40.2746 36.3594 46.5202 38.0178 47.6088 33.6695C48.7194 29.2207 42.6515 27.877 39.6806 27.2191L39.6805 27.2191C39.3439 27.1446 39.047 27.0788 38.8048 27.0184L36.7064 35.4155C36.9062 35.465 37.141 35.5273 37.4042 35.5972L37.4043 35.5972ZM34.1523 49.117C37.5901 50.0239 45.1087 52.0075 46.3051 47.2161C47.5296 42.317 40.2398 40.6852 36.6829 39.889L36.6824 39.8889L36.6814 39.8887C36.2846 39.7998 35.9343 39.7214 35.6476 39.65L33.3331 48.9046C33.5677 48.9628 33.8423 49.0352 34.1496 49.1163L34.1511 49.1167L34.1523 49.117Z" fill="#F7931A"/>
</svg>
