<svg width="120" height="50" viewBox="0 0 120 50" fill="none" xmlns="http://www.w3.org/2000/svg">
<path fill-rule="evenodd" clip-rule="evenodd" d="M55.4001 38.851V24.5014H62.795C65.8253 24.5014 68.3829 23.4845 70.468 21.479L70.9684 20.9705C74.7771 16.8182 74.5268 10.3496 70.468 6.50801C68.4385 4.47422 65.6585 3.37258 62.795 3.42907H50.9242V38.851H55.4001ZM55.4006 20.1514V7.77917H62.9079C64.5206 7.77917 66.0499 8.40061 67.1899 9.53049C69.6089 11.9033 69.6645 15.8578 67.3289 18.3153C66.1889 19.53 64.5762 20.2079 62.9079 20.1514H55.4006ZM91.8467 16.5075C89.9284 14.7279 87.3152 13.824 84.0069 13.824C79.7534 13.824 76.5564 15.4059 74.4435 18.5413L78.3912 21.0553C79.8368 18.9085 81.8107 17.8351 84.3127 17.8351C85.8974 17.8351 87.4264 18.4283 88.6218 19.5017C89.7894 20.5186 90.4567 21.9874 90.4567 23.541V24.5862C88.733 23.6258 86.5646 23.1173 83.8957 23.1173C80.7821 23.1173 78.28 23.8517 76.4174 25.3488C74.5547 26.8459 73.6095 28.8232 73.6095 31.3372C73.5539 33.6252 74.5269 35.8003 76.2506 37.2691C78.002 38.851 80.2261 39.6419 82.8393 39.6419C85.9252 39.6419 88.3716 38.2578 90.2342 35.4896H90.4289V38.851H94.7101V23.9082C94.7101 20.7728 93.7649 18.2871 91.8467 16.5075ZM79.6986 34.388C78.7811 33.71 78.225 32.6084 78.225 31.422C78.225 30.0944 78.8367 28.9928 80.0323 28.1171C81.2557 27.2415 82.785 26.7895 84.5923 26.7895C87.0947 26.7613 89.0411 27.3262 90.4313 28.4561C90.4313 30.3769 89.6806 32.0435 88.2069 33.4558C86.8723 34.8117 85.065 35.5743 83.1742 35.5743C81.923 35.6026 80.6996 35.1789 79.6986 34.388ZM104.329 49.5001L119.286 14.6149H114.421L107.498 32.0151H107.415L100.326 14.6149H95.4609L105.274 37.2973L99.7143 49.5001H104.329Z" fill="#3C4043"/>
<path d="M39.9477 21.3941C39.9477 20.01 39.8365 18.6259 39.6141 17.27H20.7375V25.0945H31.5519C31.1071 27.6085 29.6615 29.8682 27.5486 31.2806V36.3651H33.9984C37.7792 32.8342 39.9477 27.6085 39.9477 21.3941Z" fill="#4285F4"/>
<path d="M20.7384 41.2802C26.1317 41.2802 30.691 39.4723 33.9992 36.3652L27.5495 31.2807C25.7425 32.5236 23.435 33.2297 20.7384 33.2297C15.5119 33.2297 11.0916 29.6423 9.50697 24.8403H2.86264V30.0943C6.25431 36.9583 13.1766 41.2802 20.7384 41.2802Z" fill="#34A853"/>
<path d="M9.50767 24.8403C8.67352 22.3263 8.67352 19.5863 9.50767 17.0441V11.8184H2.86229C-0.00162208 17.5525 -0.00162208 24.3318 2.86229 30.066L9.50767 24.8403Z" fill="#FBBC04"/>
<path d="M20.7384 8.65481C23.6018 8.59831 26.3541 9.69995 28.4113 11.7055L34.1382 5.88659C30.4964 2.44044 25.7147 0.547885 20.7384 0.604379C13.1766 0.604379 6.2543 4.95443 2.86264 11.8185L9.50697 17.0724C11.0916 12.2422 15.5119 8.65481 20.7384 8.65481Z" fill="#EA4335"/>
</svg>
