<svg width="108" height="67" viewBox="0 0 108 67" fill="none" xmlns="http://www.w3.org/2000/svg">
<path fill-rule="evenodd" clip-rule="evenodd" d="M53.8738 58.5594C48.229 63.4438 40.9067 66.3923 32.9054 66.3923C15.0521 66.3923 0.579071 51.7121 0.579071 33.6031C0.579071 15.4942 15.0521 0.813965 32.9054 0.813965C40.9067 0.813965 48.229 3.76253 53.8738 8.64685C59.5186 3.76253 66.841 0.813965 74.8422 0.813965C92.6955 0.813965 107.169 15.4942 107.169 33.6031C107.169 51.7121 92.6955 66.3923 74.8422 66.3923C66.841 66.3923 59.5186 63.4438 53.8738 58.5594Z" fill="#ED0006"/>
<path fill-rule="evenodd" clip-rule="evenodd" d="M53.8738 58.5594C60.8244 52.5453 65.2317 43.5963 65.2317 33.6031C65.2317 23.61 60.8244 14.661 53.8738 8.64685C59.5187 3.76253 66.841 0.813965 74.8422 0.813965C92.6956 0.813965 107.169 15.4942 107.169 33.6031C107.169 51.7121 92.6956 66.3923 74.8422 66.3923C66.841 66.3923 59.5187 63.4438 53.8738 58.5594Z" fill="#F9A000"/>
<path fill-rule="evenodd" clip-rule="evenodd" d="M53.8739 58.5593C60.8244 52.5452 65.2317 43.5962 65.2317 33.6031C65.2317 23.6101 60.8244 14.6611 53.8739 8.64697C46.9234 14.6611 42.5161 23.6101 42.5161 33.6031C42.5161 43.5962 46.9234 52.5452 53.8739 58.5593Z" fill="#FF5E00"/>
</svg>
