<svg width="74" height="76" viewBox="0 0 74 76" fill="none" xmlns="http://www.w3.org/2000/svg">
<path fill-rule="evenodd" clip-rule="evenodd" d="M0.14286 33.9449C0.14286 52.3369 15.0294 67.3362 33.4603 67.3362C35.7225 67.3362 37.9847 67.1366 40.584 66.9073C43.4827 66.6516 46.8006 66.359 51.0052 66.2648C57.3851 66.2648 64.2967 68.5861 71.9172 75.3715C72.6261 76.0858 73.6894 75.193 72.9805 74.3002C65.36 64.8363 58.4484 63.0507 51.5368 61.4436C43.0302 59.4794 38.5997 54.8368 35.587 49.4799C35.0553 48.4085 34.7009 48.5871 34.7009 50.0156C34.5237 52.1583 34.7009 54.1225 35.0553 56.0867H33.992C21.941 56.0867 12.0166 46.0872 12.0166 33.9449C12.0166 21.8026 21.941 11.803 33.992 11.803C46.043 11.803 55.9673 21.8026 55.9673 33.9449C55.9673 34.6591 55.9673 35.5519 55.7901 36.4448C54.0179 36.0876 51.0052 36.0876 48.7013 36.2662C47.8152 36.2662 47.8152 36.6233 48.5241 36.8019C55.6129 38.2304 60.5751 42.6945 61.8156 50.9084C61.8156 51.2655 61.9928 51.2655 62.1701 51.0869C65.0056 46.0872 66.7778 40.1946 66.7778 33.9449C66.7778 15.3743 51.8913 0.375 33.4603 0.375C15.0294 0.375 0.14286 15.5529 0.14286 33.9449ZM57.5621 47.6944C58.8026 48.2301 59.3343 50.0158 59.3343 50.9086C59.5115 52.3371 59.1571 53.0513 58.6254 53.0513C58.0938 53.0513 57.3849 52.5157 56.676 51.2657C55.9671 50.0158 55.6127 48.7658 55.9671 48.0516C56.4988 47.6945 57.0304 47.5159 57.5621 47.6944ZM50.2961 53.2298C51.005 53.2298 51.8911 53.5869 52.7772 54.3011C54.195 55.5511 54.7266 56.9796 54.0177 58.051C53.6633 58.5867 52.7772 58.9438 52.0683 58.9438C51.1822 58.9438 50.2961 58.5867 49.7644 58.051C48.3467 56.801 47.9922 55.0154 48.8783 53.944C49.0555 53.5869 49.5872 53.2298 50.2961 53.2298Z" fill="#F28A1A"/>
</svg>
