<svg width="116" height="38" viewBox="0 0 116 38" fill="none" xmlns="http://www.w3.org/2000/svg">
<path fill-rule="evenodd" clip-rule="evenodd" d="M29.0905 37.2268H19.0947L11.5991 8.41388C11.2433 7.08849 10.4879 5.91676 9.37671 5.36451C6.60361 3.97669 3.54785 2.8722 0.214294 2.31515V1.20585H16.3167C18.5391 1.20585 20.2059 2.8722 20.4837 4.80746L24.3728 25.5912L34.3638 1.20585H44.0818L29.0905 37.2268ZM49.6377 37.2268H40.1975L47.9709 1.20585H57.4111L49.6377 37.2268ZM69.6244 11.1846C69.9022 9.24457 71.569 8.13527 73.5136 8.13527C76.5694 7.85675 79.898 8.4138 82.676 9.79682L84.3428 2.04135C81.5648 0.932049 78.5091 0.375 75.736 0.375C66.5735 0.375 59.9064 5.36443 59.9064 12.2891C59.9064 17.5571 64.629 20.3231 67.9625 21.9895C71.569 23.651 72.958 24.7603 72.6802 26.4219C72.6802 28.9142 69.9022 30.0235 67.1291 30.0235C63.7956 30.0235 60.462 29.1927 57.4111 27.8049L55.7444 35.5652C59.0779 36.9482 62.6844 37.5052 66.018 37.5052C76.2916 37.7789 82.676 32.7943 82.676 25.3126C82.676 15.8907 69.6244 15.3385 69.6244 11.1846ZM115.714 37.2268L108.219 1.20585H100.167C98.5007 1.20585 96.8339 2.31515 96.2783 3.97669L82.3982 37.2268H92.1162L94.0559 31.9636H105.996L107.107 37.2268H115.714ZM101.556 10.906L104.329 24.4817H96.5561L101.556 10.906Z" fill="#172B85"/>
</svg>
