<svg width="67" height="62" viewBox="0 0 67 62" fill="none" xmlns="http://www.w3.org/2000/svg">
<path d="M66.2001 25.2008C65.8578 23.1439 63.9753 21.7727 61.4081 21.7727C60.5524 21.7727 59.8678 21.7727 59.0121 21.7727C57.4718 21.6013 57.1295 22.1156 57.1295 23.3154C57.1295 29.3145 57.1295 35.1421 57.1295 41.1412C57.1295 44.2265 54.0489 47.4831 50.4548 48.1687C39.1593 50.7398 27.8637 53.1394 16.5682 55.7104C15.3701 56.0532 14.001 56.0532 12.6318 56.0532C12.1184 56.0532 11.2627 55.7104 11.0916 55.1962C10.9204 54.8534 11.4338 54.1678 11.7761 53.825C12.2896 53.4822 12.9741 53.1394 13.6587 52.7966C15.7125 52.111 17.9373 51.4254 19.991 50.7398C28.3771 47.9973 36.7632 45.2549 45.1493 42.341C48.9145 41.1412 50.9682 38.5702 50.9682 35.3135C51.1394 25.0294 50.9682 14.5738 50.9682 4.28969C50.9682 2.57567 50.1125 1.20445 48.2299 0.518843C46.005 -0.338169 43.9513 0.34743 42.0687 1.20444C30.0886 6.86072 18.2796 12.517 6.29947 18.1733C2.87658 19.8873 0.822876 22.2869 0.822876 25.715C0.822876 35.4849 0.822876 45.2549 0.822876 55.0248C0.822876 55.539 0.822834 56.0532 0.993979 56.396C2.19199 59.6527 5.27264 61.7095 9.38011 61.7095C17.7662 61.7095 26.1523 61.7095 34.5383 61.7095C42.9244 61.7095 51.1394 61.7095 59.5255 61.7095C61.4081 61.7095 62.9484 61.3667 64.3175 60.1669C66.029 58.7957 66.029 56.9102 66.029 55.1962C66.029 46.7636 66.2001 25.2008 66.2001 25.2008ZM31.2866 22.1156C32.1423 19.8873 34.0249 18.5161 36.7633 18.1733C38.6459 18.0019 40.1861 19.0303 40.5284 20.7443C40.8707 23.3154 37.7901 26.4006 34.5383 26.4006C31.9712 26.4006 30.4309 24.5152 31.2866 22.1156Z" fill="#FD6727"/>
</svg>
