<svg width="20" height="20" viewBox="0 0 20 20" fill="none" xmlns="http://www.w3.org/2000/svg">
<path d="M10 0C7.28414 0 6.94359 0.0115234 5.87699 0.0601953C4.81262 0.10875 4.08566 0.277773 3.44957 0.525C2.79199 0.780547 2.2343 1.1225 1.6784 1.67844C1.12246 2.23434 0.780508 2.79203 0.524961 3.44961C0.277734 4.08566 0.108711 4.81262 0.0601562 5.87699C0.0114844 6.94359 0 7.28414 0 10C0 12.7158 0.0114844 13.0563 0.0601562 14.1229C0.108711 15.1873 0.277734 15.9143 0.524961 16.5503C0.780508 17.2079 1.12246 17.7656 1.6784 18.3216C2.2343 18.8775 2.79199 19.2194 3.44957 19.475C4.08566 19.7221 4.81262 19.8912 5.87699 19.9398C6.94359 19.9884 7.28414 19.9999 10 19.9999C12.7158 19.9999 13.0563 19.9884 14.1229 19.9398C15.1873 19.8912 15.9143 19.7221 16.5503 19.475C17.2079 19.2194 17.7656 18.8775 18.3216 18.3216C18.8775 17.7656 19.2194 17.2079 19.475 16.5503C19.7221 15.9143 19.8912 15.1873 19.9398 14.1229C19.9884 13.0563 19.9999 12.7158 19.9999 10C19.9999 7.28414 19.9884 6.94359 19.9398 5.87699C19.8912 4.81262 19.7221 4.08566 19.475 3.44961C19.2194 2.79203 18.8775 2.23434 18.3216 1.67844C17.7656 1.1225 17.2079 0.780547 16.5503 0.525C15.9143 0.277773 15.1873 0.10875 14.1229 0.0601953C13.0563 0.0115234 12.7158 0 10 0V0ZM10 1.80184C12.6701 1.80184 12.9864 1.81199 14.0408 1.86012C15.0158 1.90461 15.5453 2.0675 15.8977 2.20441C16.3644 2.38582 16.6975 2.60254 17.0475 2.95246C17.3974 3.30238 17.6141 3.63555 17.7955 4.10227C17.9325 4.45465 18.0954 4.98414 18.1398 5.9591C18.1879 7.01359 18.1981 7.32988 18.1981 10C18.1981 12.6701 18.1879 12.9864 18.1398 14.0408C18.0954 15.0158 17.9325 15.5453 17.7955 15.8977C17.6141 16.3644 17.3974 16.6975 17.0475 17.0475C16.6975 17.3974 16.3644 17.6141 15.8977 17.7955C15.5453 17.9325 15.0158 18.0954 14.0408 18.1398C12.9865 18.1879 12.6703 18.1981 10 18.1981C7.32965 18.1981 7.01348 18.1879 5.9591 18.1398C4.98414 18.0954 4.45465 17.9325 4.10227 17.7955C3.63551 17.6141 3.30238 17.3974 2.95242 17.0475C2.6025 16.6975 2.38578 16.3644 2.20441 15.8977C2.06746 15.5453 1.90457 15.0158 1.86008 14.0408C1.81195 12.9864 1.8018 12.6701 1.8018 10C1.8018 7.32988 1.81195 7.01359 1.86008 5.9591C1.90457 4.98414 2.06746 4.45465 2.20441 4.10227C2.38578 3.63555 2.6025 3.30238 2.95242 2.95246C3.30238 2.60254 3.63551 2.38582 4.10227 2.20441C4.45465 2.0675 4.98414 1.90461 5.9591 1.86012C7.01359 1.81199 7.32988 1.80184 10 1.80184Z" fill="url(#paint0_linear)"/>
<path d="M9.99966 13.3341C8.15868 13.3341 6.6663 11.8417 6.6663 10.0008C6.6663 8.15984 8.15868 6.66746 9.99966 6.66746C11.8406 6.66746 13.3329 8.15984 13.3329 10.0008C13.3329 11.8417 11.8406 13.3341 9.99966 13.3341ZM9.99966 4.86566C7.16356 4.86566 4.8645 7.16472 4.8645 10.0008C4.8645 12.8368 7.16356 15.1359 9.99966 15.1359C12.8357 15.1359 15.1347 12.8368 15.1347 10.0008C15.1347 7.16472 12.8357 4.86566 9.99966 4.86566Z" fill="url(#paint1_linear)"/>
<path d="M16.5382 4.66188C16.5382 5.32465 16.0009 5.86187 15.3382 5.86187C14.6754 5.86187 14.1382 5.32465 14.1382 4.66188C14.1382 3.99914 14.6754 3.46191 15.3382 3.46191C16.0009 3.46191 16.5382 3.99914 16.5382 4.66188Z" fill="url(#paint2_linear)"/>
<defs>
<linearGradient id="paint0_linear" x1="11.7504" y1="-1.0597" x2="5.90594" y2="18.2489" gradientUnits="userSpaceOnUse">
<stop stop-color="#515BD4"/>
<stop offset="0.26" stop-color="#9510B8"/>
<stop offset="0.66" stop-color="#E51804"/>
<stop offset="1" stop-color="#FEDA77"/>
</linearGradient>
<linearGradient id="paint1_linear" x1="11.7501" y1="-1.05888" x2="5.9056" y2="18.2497" gradientUnits="userSpaceOnUse">
<stop stop-color="#515BD4"/>
<stop offset="0.26" stop-color="#9510B8"/>
<stop offset="0.66" stop-color="#E51804"/>
<stop offset="1" stop-color="#FFBF00"/>
</linearGradient>
<linearGradient id="paint2_linear" x1="11.7506" y1="-1.05978" x2="5.90615" y2="18.2488" gradientUnits="userSpaceOnUse">
<stop stop-color="#515BD4"/>
<stop offset="0.26" stop-color="#9510B8"/>
<stop offset="0.66" stop-color="#E51804"/>
<stop offset="1" stop-color="#FFBF00"/>
</linearGradient>
</defs>
</svg>
