<svg width="15" height="17" viewBox="0 0 15 17" fill="none" xmlns="http://www.w3.org/2000/svg">
<path d="M13.8333 0.0186542C14.1389 -0.0373066 14.4097 0.0326339 14.6458 0.22856C14.882 0.424485 15 0.676372 15 0.984219V11.7524C15 12.7459 14.7222 13.5226 14.1667 14.0823C13.6111 14.6281 12.8472 14.9009 11.875 14.9009C11.2083 14.9009 10.6597 14.726 10.2292 14.3762C9.79863 14.0123 9.58333 13.5576 9.58333 13.0118C9.58333 12.3261 9.85417 11.7524 10.3958 11.2906C10.9375 10.8288 11.6389 10.5979 12.5 10.5979C12.8195 10.5979 13.1597 10.6538 13.5208 10.7658C13.5347 10.7658 13.5486 10.7588 13.5625 10.7448C13.5764 10.7448 13.5833 10.7378 13.5833 10.7238V3.79695C13.5833 3.75497 13.5625 3.72 13.5208 3.692C13.4792 3.65002 13.4375 3.63604 13.3958 3.65002L5.58333 5.16134C5.47221 5.18934 5.41667 5.25928 5.41667 5.37124V13.8514C5.41667 14.845 5.13887 15.6216 4.58333 16.1814C4.02779 16.7271 3.26387 17 2.29167 17C1.625 17 1.07637 16.8181 0.645833 16.4542C0.215292 16.1044 0 15.6566 0 15.1109C0 14.4252 0.270833 13.8514 0.8125 13.3896C1.35417 12.9278 2.05554 12.6969 2.91667 12.6969C3.23612 12.6969 3.57637 12.7529 3.9375 12.8649C3.95137 12.8649 3.96529 12.8579 3.97917 12.8439C3.99304 12.8439 4 12.8369 4 12.8229V3.08327C4 2.73344 4.10417 2.42556 4.3125 2.15969C4.53471 1.8798 4.8125 1.71188 5.14583 1.65592L13.8333 0.0186542Z" fill="url(#paint0_linear)"/>
<defs>
<linearGradient id="paint0_linear" x1="-6.87671" y1="-6.2995" x2="22.3438" y2="23.0355" gradientUnits="userSpaceOnUse">
<stop offset="0.0635411" stop-color="#FB413E"/>
<stop offset="0.381554" stop-color="#FF3C32"/>
<stop offset="0.520016" stop-color="#AD69E3" stop-opacity="0.75"/>
<stop offset="0.629314" stop-color="#5DC4F9"/>
<stop offset="0.962717" stop-color="#60C2F8"/>
</linearGradient>
</defs>
</svg>
