<svg width="12" height="18" viewBox="0 0 12 18" fill="none" xmlns="http://www.w3.org/2000/svg">
<path d="M10.0366 11.7338C9.07532 12.3442 7.75267 12.5863 6.87903 12.6775L7.61228 13.4003L10.2892 16.0772C11.2681 17.0806 9.67517 18.6488 8.68587 17.6805C8.01579 16.9999 7.03333 16.0175 6.00892 14.9931L3.332 17.677C2.34263 18.6419 0.749814 17.0595 1.73919 16.0736C2.41981 15.393 3.39165 14.4106 4.4161 13.3967L5.13884 12.674C4.27579 12.5828 2.93208 12.3547 1.96021 11.7303C0.816455 10.9935 0.314776 10.562 0.756807 9.66029C1.01642 9.14807 1.7286 8.71654 2.67239 9.46033C2.67239 9.46033 3.94595 10.4742 6.00188 10.4742C8.05778 10.4742 9.33134 9.46033 9.33134 9.46033C10.2751 8.72002 10.9838 9.14807 11.2469 9.66029C11.6821 10.562 11.1804 10.9935 10.0366 11.7338ZM1.44802 4.56608C1.44802 2.05057 3.49341 0.015686 5.99845 0.015686C8.50349 0.015686 10.5488 2.05057 10.5488 4.56608C10.5488 7.07112 8.50349 9.10596 5.99845 9.10596C3.49341 9.10596 1.44802 7.07112 1.44802 4.56608ZM3.7636 4.56608C3.7636 5.79752 4.767 6.80092 5.99845 6.80092C7.22981 6.80092 8.23333 5.79752 8.23333 4.56608C8.23333 3.32408 7.22985 2.32072 5.99845 2.32072C4.76696 2.32072 3.7636 3.32408 3.7636 4.56608Z" fill="#FF7E00"/>
</svg>
