<svg width="20" height="18" viewBox="0 0 20 18" fill="none" xmlns="http://www.w3.org/2000/svg">
<path d="M6.28961 17.1254C13.8368 17.1254 17.9648 10.8726 17.9648 5.45021C17.9648 5.27263 17.9648 5.09583 17.9528 4.91982C18.7559 4.33892 19.4491 3.61974 20 2.79583C19.2511 3.12767 18.4566 3.34525 17.6432 3.44142C18.4996 2.92876 19.141 2.12181 19.4472 1.17181C18.6418 1.64974 17.7605 1.98662 16.8416 2.16783C16.0657 1.34279 14.9821 0.87439 13.8497 0.87439C11.5965 0.87439 9.74246 2.72845 9.74246 4.98158C9.74246 5.29415 9.77816 5.60576 9.84879 5.91021C6.55121 5.74494 3.47457 4.18517 1.39199 1.62302C0.309023 3.48732 0.869375 5.90333 2.66238 7.1006C2.00945 7.08126 1.37055 6.90509 0.8 6.58701V6.639C0.800547 8.58486 2.18465 10.2761 4.09199 10.6614C3.48793 10.8261 2.85398 10.8502 2.23922 10.7318C2.77543 12.3992 4.32168 13.5485 6.07281 13.5814C4.62008 14.7231 2.82449 15.3433 0.976797 15.3414C0.650313 15.3408 0.324141 15.321 0 15.2822C1.87633 16.4863 4.06016 17.1252 6.28961 17.1222" fill="#1DA1F2"/>
</svg>
