<svg width="20" height="12" viewBox="0 0 20 12" fill="none" xmlns="http://www.w3.org/2000/svg">
<path d="M1.25 0.34375C1.90625 0.34375 2.90625 0.34375 3.46875 0.34375C3.75 0.34375 3.96875 0.53125 4.0625 0.78125C4.34375 1.59375 4.96875 3.375 5.6875 4.59375C6.65625 6.1875 7.28125 6.78125 7.6875 6.71875C8.09375 6.625 7.96875 5.5625 7.96875 4.71875C7.96875 3.875 8.0625 2.4375 7.65625 1.78125L7.03125 0.875C6.875 0.65625 7.03125 0.375 7.28125 0.375H10.8438C11.1875 0.375 11.4688 0.65625 11.4688 1V5.53125C11.4688 5.53125 11.625 6.34375 12.5 5.5C13.375 4.65625 14.3125 3.09375 15.0938 1.5L15.4063 0.75C15.5 0.53125 15.7188 0.375 15.9688 0.375H18.2813C18.7188 0.375 19.0313 0.8125 18.875 1.21875L18.625 1.875C18.625 1.875 17.7813 3.5625 16.9063 4.75C16.0313 5.96875 15.8438 6.25 15.9688 6.5625C16.0938 6.875 18.3438 8.96875 18.9063 9.96875C19.0625 10.25 19.1875 10.5 19.3125 10.7188C19.5313 11.125 19.2188 11.6562 18.75 11.6562H16.125C15.9063 11.6562 15.6875 11.5312 15.5938 11.3438L15.3438 10.9375C15.3438 10.9375 13.75 9.0625 12.7813 8.46875C11.7813 7.90625 11.8125 8.71875 11.8125 8.71875V10.375C11.8125 11.0625 11.25 11.625 10.5625 11.625H9.9375C9.9375 11.625 6.5 11.625 3.75 7.53125C1.59375 4.34375 0.875003 2.28125 0.625003 1.09375C0.562503 0.71875 0.843753 0.34375 1.25 0.34375Z" fill="#5181B8"/>
</svg>
