<svg width="20" height="14" viewBox="0 0 20 14" fill="none" xmlns="http://www.w3.org/2000/svg">
<path d="M19.582 2.18601C19.352 1.32546 18.6744 0.647847 17.8139 0.417886C16.254 -0.000122219 9.99992 -0.00012207 9.99992 -0.00012207C9.99992 -0.00012207 3.74582 -0.000122219 2.18594 0.417886C1.32559 0.647847 0.647812 1.32546 0.417812 2.18601C0 3.7457 0 6.99992 0 6.99992C0 6.99992 0 10.2541 0.417812 11.8137C0.647812 12.6742 1.32559 13.352 2.18594 13.5819C3.74582 13.9998 9.99992 13.9998 9.99992 13.9998C9.99992 13.9998 16.254 13.9998 17.8139 13.5819C18.6744 13.352 19.352 12.6742 19.582 11.8137C20 10.2541 20 6.99992 20 6.99992C20 6.99992 20 3.7457 19.582 2.18601Z" fill="#ED1F24"/>
<path d="M7.99988 10.0002L13.1959 7.00016L7.99988 4.00012V10.0002Z" fill="white"/>
</svg>
